<svg width="18" height="19" fill="none" xmlns="http://www.w3.org/2000/svg"><path d="M16.188 9.275a1.3 1.3 0 00-.913.375 1.276 1.276 0 00-.376.906c0 1.158-.347 2.29-.997 3.254a5.902 5.902 0 01-2.654 2.157c-1.08.443-2.27.559-3.417.333a5.932 5.932 0 01-3.028-1.603 5.84 5.84 0 01-1.619-2.999 5.804 5.804 0 01.337-3.384 5.87 5.87 0 012.178-2.628 5.955 5.955 0 013.286-.987v2.16l5.795-3.43L8.985 0v2.164a8.559 8.559 0 00-4.721 1.428A8.435 8.435 0 001.14 7.378a8.342 8.342 0 00-.473 4.866 8.394 8.394 0 002.338 4.305 8.527 8.527 0 004.359 2.294c1.65.32 3.36.149 4.911-.493a8.482 8.482 0 003.807-3.112 8.36 8.36 0 001.418-4.682 1.267 1.267 0 00-.384-.914 1.29 1.29 0 00-.928-.367z" fill="#243f2f"/></svg>